<svg width="22" height="18" viewBox="0 0 22 18" fill="none" xmlns="http://www.w3.org/2000/svg">
<path d="M0.216303 15.7536C2.2555 14.2462 3.78061 12.8112 4.79164 11.4487C5.76648 10.1288 6.44498 8.66733 6.82714 7.06431C6.3169 7.40967 5.73073 7.58842 5.06862 7.60057C4.36973 7.61339 3.83312 7.39223 3.45878 6.93709C3.04766 6.48263 2.83708 5.89849 2.82703 5.18467C2.81698 4.47085 2.95495 3.81732 3.24095 3.22407C3.49016 2.6315 3.83251 2.12122 4.26801 1.69323C4.7035 1.26524 5.21374 0.919879 5.79873 0.657147C6.34694 0.395091 6.93371 0.258331 7.55903 0.246862C9.47178 0.21178 10.4438 1.30696 10.4751 3.53239C10.4941 4.87605 10.346 6.11777 10.0309 7.25755C9.67958 8.44 9.12509 9.56318 8.36741 10.6271C7.61032 11.733 6.63223 12.8219 5.43315 13.8939C4.23465 15.0079 2.79795 16.1893 1.12305 17.438L0.216303 15.7536ZM10.81 15.5593C12.8492 14.0519 14.3743 12.6169 15.3853 11.2544C16.3602 9.93448 17.0387 8.47303 17.4208 6.87001C16.9106 7.21537 16.3244 7.39412 15.6623 7.40627C14.9634 7.41909 14.4268 7.19793 14.0525 6.74279C13.6413 6.28833 13.4308 5.70419 13.4207 4.99037C13.4107 4.27655 13.5486 3.62302 13.8346 3.02977C14.0838 2.4372 14.4262 1.92692 14.8617 1.49893C15.2972 1.07094 15.8074 0.72558 16.3924 0.462848C16.9406 0.200792 17.5274 0.0640318 18.1527 0.0525628C20.0655 0.017481 21.0375 1.11266 21.0688 3.33809C21.0877 4.68175 20.9396 5.92347 20.6246 7.06325C20.2733 8.2457 19.7188 9.36888 18.9611 10.4328C18.204 11.5387 17.2259 12.6276 16.0268 13.6996C14.8283 14.8136 13.3916 15.995 11.7167 17.2437L10.81 15.5593Z" fill="#A16E00"/>
</svg>
