<svg width="21" height="17" viewBox="0 0 21 17" fill="none" xmlns="http://www.w3.org/2000/svg">
<path d="M21 1.69373C18.9423 3.15744 17.399 4.55843 16.3701 5.89668C15.378 7.19311 14.6798 8.63592 14.2756 10.2251C14.79 9.89053 15.378 9.72325 16.0394 9.72325C16.7375 9.72325 17.2703 9.95326 17.6378 10.4133C18.042 10.8733 18.2441 11.4588 18.2441 12.1697C18.2441 12.8807 18.0971 13.5289 17.8032 14.1144C17.5459 14.6999 17.1969 15.2017 16.7559 15.6199C16.315 16.0381 15.8005 16.3727 15.2126 16.6236C14.6614 16.8745 14.0735 17 13.4488 17C11.5381 17 10.5827 15.8918 10.5827 13.6753C10.5827 12.337 10.748 11.1033 11.0787 9.97417C11.4462 8.8032 12.0157 7.69496 12.7874 6.64945C13.5591 5.56211 14.5512 4.49569 15.7638 3.45018C16.9764 2.36285 18.4278 1.21279 20.1181 0L21 1.69373ZM10.4173 1.69373C8.35958 3.15744 6.81627 4.55843 5.7874 5.89668C4.79528 7.19311 4.09711 8.63592 3.69291 10.2251C4.20735 9.89053 4.79528 9.72325 5.45669 9.72325C6.15486 9.72325 6.68766 9.95326 7.05512 10.4133C7.45932 10.8733 7.66142 11.4588 7.66142 12.1697C7.66142 12.8807 7.51444 13.5289 7.22047 14.1144C6.96326 14.6999 6.61417 15.2017 6.17323 15.6199C5.73228 16.0381 5.21785 16.3727 4.62992 16.6236C4.07874 16.8745 3.49081 17 2.86614 17C0.955381 17 0 15.8918 0 13.6753C0 12.337 0.165354 11.1033 0.496063 9.97417C0.863517 8.8032 1.43307 7.69496 2.20473 6.64945C2.97638 5.56211 3.9685 4.49569 5.1811 3.45018C6.3937 2.36285 7.84514 1.21279 9.53543 0L10.4173 1.69373Z" fill="#A16E00"/>
</svg>
